<svg width="700" height="700" viewBox="0 0 700 700" fill="none" xmlns="http://www.w3.org/2000/svg">
<rect width="700" height="700" rx="20" fill="#181C22"/>
<path d="M173.37 166.5H179.67V324H173.37V299.43C169.59 307.62 164.06 314.235 156.78 319.275C149.5 324.245 140.75 326.73 130.53 326.73C122.9 326.73 115.76 325.295 109.11 322.425C102.46 319.555 96.58 315.6 91.47 310.56C86.43 305.45 82.475 299.57 79.605 292.92C76.735 286.27 75.3 279.13 75.3 271.5C75.3 263.8 76.735 256.625 79.605 249.975C82.475 243.255 86.43 237.375 91.47 232.335C96.58 227.225 102.46 223.235 109.11 220.365C115.76 217.495 122.9 216.06 130.53 216.06C140.75 216.06 149.5 218.58 156.78 223.62C164.06 228.59 169.59 235.17 173.37 243.36V166.5ZM130.53 320.43C139.56 320.43 147.225 318.225 153.525 313.815C159.895 309.405 164.725 303.49 168.015 296.07C171.305 288.65 172.95 280.46 172.95 271.5C172.95 262.33 171.27 254.035 167.91 246.615C164.55 239.195 159.685 233.315 153.315 228.975C147.015 224.565 139.42 222.36 130.53 222.36C121.57 222.36 113.38 224.565 105.96 228.975C98.54 233.385 92.625 239.335 88.215 246.825C83.805 254.245 81.6 262.47 81.6 271.5C81.6 280.67 83.84 288.965 88.32 296.385C92.87 303.735 98.855 309.58 106.275 313.92C113.695 318.26 121.78 320.43 130.53 320.43ZM251.052 326.73C241.392 326.73 232.572 324.245 224.592 319.275C216.682 314.305 210.347 307.655 205.587 299.325C200.897 290.925 198.552 281.65 198.552 271.5C198.552 263.8 199.917 256.625 202.647 249.975C205.377 243.255 209.122 237.375 213.882 232.335C218.712 227.225 224.312 223.235 230.682 220.365C237.052 217.495 243.842 216.06 251.052 216.06C258.542 216.06 265.437 217.46 271.737 220.26C278.037 223.06 283.532 227.05 288.222 232.23C292.912 237.41 296.552 243.605 299.142 250.815C301.802 257.955 303.202 265.9 303.342 274.65H204.852C205.552 283.4 208.037 291.24 212.307 298.17C216.647 305.03 222.177 310.455 228.897 314.445C235.617 318.435 243.002 320.43 251.052 320.43C260.012 320.43 268.062 318.05 275.202 313.29C282.342 308.53 288.012 301.95 292.212 293.55L298.512 295.02C294.312 304.33 287.977 311.96 279.507 317.91C271.037 323.79 261.552 326.73 251.052 326.73ZM204.852 268.35H297.042C296.762 260.16 294.522 252.565 290.322 245.565C286.122 238.565 280.592 232.965 273.732 228.765C266.872 224.495 259.312 222.36 251.052 222.36C242.722 222.36 235.162 224.425 228.372 228.555C221.652 232.685 216.192 238.25 211.992 245.25C207.792 252.18 205.412 259.88 204.852 268.35ZM357.745 324H350.185L311.755 218.58H318.475L353.965 316.23L389.455 218.58H396.175L357.745 324ZM137.46 416.06C147.68 416.06 156.99 418.545 165.39 423.515C173.79 428.485 180.475 435.17 185.445 443.57C190.415 451.9 192.9 461.14 192.9 471.29C192.9 478.92 191.465 486.095 188.595 492.815C185.725 499.535 181.735 505.45 176.625 510.56C171.585 515.6 165.705 519.555 158.985 522.425C152.335 525.295 145.16 526.73 137.46 526.73C130.88 526.73 125.035 525.26 119.925 522.32C114.885 519.31 110.65 515.425 107.22 510.665V524H81.6V366.5H107.22V432.125C110.65 427.365 114.885 423.515 119.925 420.575C125.035 417.565 130.88 416.06 137.46 416.06ZM137.145 501.95C142.605 501.95 147.54 500.585 151.95 497.855C156.43 495.055 160 491.345 162.66 486.725C165.32 482.105 166.65 476.96 166.65 471.29C166.65 465.69 165.32 460.58 162.66 455.96C160 451.27 156.43 447.56 151.95 444.83C147.47 442.1 142.535 440.735 137.145 440.735C131.825 440.735 127.065 442.135 122.865 444.935C118.665 447.665 115.375 451.375 112.995 456.065C110.615 460.685 109.425 465.76 109.425 471.29C109.425 476.96 110.615 482.14 112.995 486.83C115.375 491.45 118.665 495.125 122.865 497.855C127.065 500.585 131.825 501.95 137.145 501.95ZM209.469 524L209.364 419H234.984L235.089 428.345C238.659 424.565 242.929 421.59 247.899 419.42C252.869 417.18 258.224 416.06 263.964 416.06C267.814 416.06 271.664 416.62 275.514 417.74L265.434 443.57C262.774 442.52 260.114 441.995 257.454 441.995C253.324 441.995 249.544 443.01 246.114 445.04C242.754 447 240.059 449.695 238.029 453.125C236.069 456.485 235.089 460.23 235.089 464.36V524H209.469ZM328.571 526.73C318.911 526.73 310.091 524.245 302.111 519.275C294.201 514.305 287.866 507.62 283.106 499.22C278.416 490.82 276.071 481.545 276.071 471.395C276.071 463.765 277.436 456.625 280.166 449.975C282.896 443.255 286.641 437.375 291.401 432.335C296.231 427.225 301.831 423.235 308.201 420.365C314.571 417.495 321.361 416.06 328.571 416.06C336.761 416.06 344.251 417.81 351.041 421.31C357.901 424.74 363.711 429.465 368.471 435.485C373.231 441.505 376.696 448.365 378.866 456.065C381.036 463.765 381.526 471.815 380.336 480.215H303.581C304.561 484.135 306.171 487.67 308.411 490.82C310.651 493.9 313.486 496.385 316.916 498.275C320.346 500.095 324.231 501.04 328.571 501.11C333.051 501.18 337.111 500.13 340.751 497.96C344.461 495.72 347.541 492.71 349.991 488.93L376.136 495.02C371.866 504.33 365.496 511.96 357.026 517.91C348.556 523.79 339.071 526.73 328.571 526.73ZM302.741 461H354.401C353.631 456.8 351.986 453.02 349.466 449.66C347.016 446.23 343.971 443.5 340.331 441.47C336.691 439.44 332.771 438.425 328.571 438.425C324.371 438.425 320.486 439.44 316.916 441.47C313.346 443.43 310.301 446.125 307.781 449.555C305.331 452.915 303.651 456.73 302.741 461ZM477 419H502.62V524H477L475.845 510.98C472.975 515.67 469.16 519.485 464.4 522.425C459.71 525.295 454.145 526.73 447.705 526.73C439.935 526.73 432.655 525.26 425.865 522.32C419.075 519.38 413.09 515.32 407.91 510.14C402.8 504.96 398.775 498.975 395.835 492.185C392.965 485.395 391.53 478.115 391.53 470.345C391.53 462.855 392.895 455.82 395.625 449.24C398.425 442.66 402.31 436.885 407.28 431.915C412.25 426.945 417.99 423.06 424.5 420.26C431.01 417.46 438.01 416.06 445.5 416.06C452.43 416.06 458.625 417.6 464.085 420.68C469.615 423.76 474.305 427.68 478.155 432.44L477 419ZM447.075 502.055C452.535 502.055 457.365 500.69 461.565 497.96C465.765 495.23 469.055 491.555 471.435 486.935C473.815 482.245 475.005 477.1 475.005 471.5C475.005 465.83 473.815 460.685 471.435 456.065C469.055 451.375 465.73 447.665 461.46 444.935C457.26 442.205 452.465 440.84 447.075 440.84C441.685 440.84 436.75 442.24 432.27 445.04C427.86 447.77 424.325 451.445 421.665 456.065C419.075 460.685 417.78 465.83 417.78 471.5C417.78 477.17 419.11 482.315 421.77 486.935C424.43 491.555 427.965 495.23 432.375 497.96C436.855 500.69 441.755 502.055 447.075 502.055ZM617.924 524H588.419L564.479 482.735L549.779 500.27V524H524.159V366.5H549.779V460.475L584.534 419H618.029L582.014 461.945L617.924 524Z" fill="white"/>
</svg>
