<svg width="1086" height="199" viewBox="0 0 1086 199" fill="none" xmlns="http://www.w3.org/2000/svg">
<path d="M121.759 -1.54972e-05H129.559V195H121.759V164.58C117.079 174.72 110.232 182.91 101.219 189.15C92.2057 195.303 81.3724 198.38 68.7191 198.38C59.2724 198.38 50.4324 196.603 42.1991 193.05C33.9657 189.497 26.6857 184.6 20.3591 178.36C14.1191 172.033 9.2224 164.753 5.66906 156.52C2.11573 148.287 0.339063 139.447 0.339063 130C0.339063 120.467 2.11573 111.583 5.66906 103.35C9.2224 95.03 14.1191 87.75 20.3591 81.51C26.6857 75.1833 33.9657 70.2433 42.1991 66.69C50.4324 63.1367 59.2724 61.36 68.7191 61.36C81.3724 61.36 92.2057 64.48 101.219 70.72C110.232 76.8733 117.079 85.02 121.759 95.16V-1.54972e-05ZM68.7191 190.58C79.8991 190.58 89.3891 187.85 97.1891 182.39C105.076 176.93 111.056 169.607 115.129 160.42C119.202 151.233 121.239 141.093 121.239 130C121.239 118.647 119.159 108.377 114.999 99.19C110.839 90.0033 104.816 82.7233 96.9291 77.35C89.1291 71.89 79.7257 69.16 68.7191 69.16C57.6257 69.16 47.4857 71.89 38.2991 77.35C29.1124 82.81 21.7891 90.1767 16.3291 99.45C10.8691 108.637 8.13906 118.82 8.13906 130C8.13906 141.353 10.9124 151.623 16.4591 160.81C22.0924 169.91 29.5024 177.147 38.6891 182.52C47.8757 187.893 57.8857 190.58 68.7191 190.58ZM217.937 198.38C205.977 198.38 195.057 195.303 185.177 189.15C175.383 182.997 167.54 174.763 161.647 164.45C155.84 154.05 152.937 142.567 152.937 130C152.937 120.467 154.627 111.583 158.007 103.35C161.387 95.03 166.023 87.75 171.917 81.51C177.897 75.1833 184.83 70.2433 192.717 66.69C200.603 63.1367 209.01 61.36 217.937 61.36C227.21 61.36 235.747 63.0933 243.547 66.56C251.347 70.0267 258.15 74.9667 263.957 81.38C269.763 87.7933 274.27 95.4633 277.477 104.39C280.77 113.23 282.503 123.067 282.677 133.9H160.737C161.603 144.733 164.68 154.44 169.967 163.02C175.34 171.513 182.187 178.23 190.507 183.17C198.827 188.11 207.97 190.58 217.937 190.58C229.03 190.58 238.997 187.633 247.837 181.74C256.677 175.847 263.697 167.7 268.897 157.3L276.697 159.12C271.497 170.647 263.653 180.093 253.167 187.46C242.68 194.74 230.937 198.38 217.937 198.38ZM160.737 126.1H274.877C274.53 115.96 271.757 106.557 266.557 97.89C261.357 89.2233 254.51 82.29 246.017 77.09C237.523 71.8033 228.163 69.16 217.937 69.16C207.623 69.16 198.263 71.7167 189.857 76.83C181.537 81.9433 174.777 88.8333 169.577 97.5C164.377 106.08 161.43 115.613 160.737 126.1ZM350.033 195H340.673L293.093 64.48H301.413L345.353 185.38L389.293 64.48H397.613L350.033 195ZM490.151 61.36C502.804 61.36 514.331 64.4367 524.731 70.59C535.131 76.7433 543.407 85.02 549.561 95.42C555.714 105.733 558.791 117.173 558.791 129.74C558.791 139.187 557.014 148.07 553.461 156.39C549.907 164.71 544.967 172.033 538.641 178.36C532.401 184.6 525.121 189.497 516.801 193.05C508.567 196.603 499.684 198.38 490.151 198.38C482.004 198.38 474.767 196.56 468.441 192.92C462.201 189.193 456.957 184.383 452.711 178.49V195H420.991V-1.54972e-05H452.711V81.25C456.957 75.3567 462.201 70.59 468.441 66.95C474.767 63.2233 482.004 61.36 490.151 61.36ZM489.761 167.7C496.521 167.7 502.631 166.01 508.091 162.63C513.637 159.163 518.057 154.57 521.351 148.85C524.644 143.13 526.291 136.76 526.291 129.74C526.291 122.807 524.644 116.48 521.351 110.76C518.057 104.953 513.637 100.36 508.091 96.98C502.544 93.6 496.434 91.91 489.761 91.91C483.174 91.91 477.281 93.6433 472.081 97.11C466.881 100.49 462.807 105.083 459.861 110.89C456.914 116.61 455.441 122.893 455.441 129.74C455.441 136.76 456.914 143.173 459.861 148.98C462.807 154.7 466.881 159.25 472.081 162.63C477.281 166.01 483.174 167.7 489.761 167.7ZM579.304 195L579.174 65H610.894L611.024 76.57C615.444 71.89 620.731 68.2067 626.884 65.52C633.038 62.7467 639.668 61.36 646.774 61.36C651.541 61.36 656.308 62.0533 661.074 63.44L648.594 95.42C645.301 94.12 642.008 93.47 638.714 93.47C633.601 93.47 628.921 94.7267 624.674 97.24C620.514 99.6667 617.178 103.003 614.664 107.25C612.238 111.41 611.024 116.047 611.024 121.16V195H579.304ZM726.765 198.38C714.805 198.38 703.885 195.303 694.005 189.15C684.212 182.997 676.368 174.72 670.475 164.32C664.668 153.92 661.765 142.437 661.765 129.87C661.765 120.423 663.455 111.583 666.835 103.35C670.215 95.03 674.852 87.75 680.745 81.51C686.725 75.1833 693.658 70.2433 701.545 66.69C709.432 63.1367 717.838 61.36 726.765 61.36C736.905 61.36 746.178 63.5267 754.585 67.86C763.078 72.1067 770.272 77.9567 776.165 85.41C782.058 92.8633 786.348 101.357 789.035 110.89C791.722 120.423 792.328 130.39 790.855 140.79H695.825C697.038 145.643 699.032 150.02 701.805 153.92C704.578 157.733 708.088 160.81 712.335 163.15C716.582 165.403 721.392 166.573 726.765 166.66C732.312 166.747 737.338 165.447 741.845 162.76C746.438 159.987 750.252 156.26 753.285 151.58L785.655 159.12C780.368 170.647 772.482 180.093 761.995 187.46C751.508 194.74 739.765 198.38 726.765 198.38ZM694.785 117H758.745C757.792 111.8 755.755 107.12 752.635 102.96C749.602 98.7133 745.832 95.3333 741.325 92.82C736.818 90.3067 731.965 89.05 726.765 89.05C721.565 89.05 716.755 90.3067 712.335 92.82C707.915 95.2467 704.145 98.5833 701.025 102.83C697.992 106.99 695.912 111.713 694.785 117ZM910.534 65H942.254V195H910.534L909.104 178.88C905.551 184.687 900.827 189.41 894.934 193.05C889.127 196.603 882.237 198.38 874.264 198.38C864.644 198.38 855.631 196.56 847.224 192.92C838.817 189.28 831.407 184.253 824.994 177.84C818.667 171.427 813.684 164.017 810.044 155.61C806.491 147.203 804.714 138.19 804.714 128.57C804.714 119.297 806.404 110.587 809.784 102.44C813.251 94.2933 818.061 87.1433 824.214 80.99C830.367 74.8367 837.474 70.0267 845.534 66.56C853.594 63.0933 862.261 61.36 871.534 61.36C880.114 61.36 887.784 63.2667 894.544 67.08C901.391 70.8933 907.197 75.7467 911.964 81.64L910.534 65ZM873.484 167.83C880.244 167.83 886.224 166.14 891.424 162.76C896.624 159.38 900.697 154.83 903.644 149.11C906.591 143.303 908.064 136.933 908.064 130C908.064 122.98 906.591 116.61 903.644 110.89C900.697 105.083 896.581 100.49 891.294 97.11C886.094 93.73 880.157 92.04 873.484 92.04C866.811 92.04 860.701 93.7733 855.154 97.24C849.694 100.62 845.317 105.17 842.024 110.89C838.817 116.61 837.214 122.98 837.214 130C837.214 137.02 838.861 143.39 842.154 149.11C845.447 154.83 849.824 159.38 855.284 162.76C860.831 166.14 866.897 167.83 873.484 167.83ZM1085.01 195H1048.48L1018.84 143.91L1000.64 165.62V195H968.92V-1.54972e-05H1000.64V116.35L1043.67 65H1085.14L1040.55 118.17L1085.01 195Z" fill="white"/>
</svg>
