<svg width="40" height="40" viewBox="0 0 40 40" fill="none" xmlns="http://www.w3.org/2000/svg">
<g filter="url(#filter0_b_320_519)">
<rect width="40" height="40" rx="20" fill="url(#paint0_linear_320_519)" fill-opacity="0.1"/>
<rect x="0.5" y="0.5" width="39" height="39" rx="19.5" stroke="white" stroke-opacity="0.3"/>
<path d="M20 7.5C18.7639 7.5 17.5555 7.86656 16.5277 8.55331C15.4999 9.24007 14.6988 10.2162 14.2258 11.3582C13.7527 12.5003 13.6289 13.7569 13.8701 14.9693C14.1112 16.1817 14.7065 17.2953 15.5806 18.1694C16.4547 19.0435 17.5683 19.6388 18.7807 19.8799C19.9931 20.1211 21.2497 19.9973 22.3918 19.5242C23.5338 19.0512 24.5099 18.2501 25.1967 17.2223C25.8834 16.1945 26.25 14.9861 26.25 13.75C26.25 12.0924 25.5915 10.5027 24.4194 9.33058C23.2473 8.15848 21.6576 7.5 20 7.5ZM20 17.5C19.2583 17.5 18.5333 17.2801 17.9166 16.868C17.2999 16.456 16.8193 15.8703 16.5355 15.1851C16.2516 14.4998 16.1774 13.7458 16.3221 13.0184C16.4667 12.291 16.8239 11.6228 17.3483 11.0983C17.8728 10.5739 18.541 10.2168 19.2684 10.0721C19.9958 9.92736 20.7498 10.0016 21.4351 10.2855C22.1203 10.5693 22.706 11.0499 23.118 11.6666C23.5301 12.2833 23.75 13.0083 23.75 13.75C23.75 14.7446 23.3549 15.6984 22.6517 16.4017C21.9484 17.1049 20.9946 17.5 20 17.5ZM31.25 31.25V30C31.25 27.6794 30.3281 25.4538 28.6872 23.8128C27.0462 22.1719 24.8206 21.25 22.5 21.25H17.5C15.1794 21.25 12.9538 22.1719 11.3128 23.8128C9.67187 25.4538 8.75 27.6794 8.75 30V31.25H11.25V30C11.25 28.3424 11.9085 26.7527 13.0806 25.5806C14.2527 24.4085 15.8424 23.75 17.5 23.75H22.5C24.1576 23.75 25.7473 24.4085 26.9194 25.5806C28.0915 26.7527 28.75 28.3424 28.75 30V31.25H31.25Z" fill="white"/>
</g>
<defs>
<filter id="filter0_b_320_519" x="-80" y="-80" width="200" height="200" filterUnits="userSpaceOnUse" color-interpolation-filters="sRGB">
<feFlood flood-opacity="0" result="BackgroundImageFix"/>
<feGaussianBlur in="BackgroundImageFix" stdDeviation="40"/>
<feComposite in2="SourceAlpha" operator="in" result="effect1_backgroundBlur_320_519"/>
<feBlend mode="normal" in="SourceGraphic" in2="effect1_backgroundBlur_320_519" result="shape"/>
</filter>
<linearGradient id="paint0_linear_320_519" x1="0.508149" y1="0.986601" x2="44.8809" y2="29.4939" gradientUnits="userSpaceOnUse">
<stop stop-color="#4F4F4F"/>
<stop offset="0.0001" stop-color="#4F4F4F"/>
<stop offset="0.328125" stop-color="white"/>
<stop offset="1" stop-color="#4F4F4F"/>
</linearGradient>
</defs>
</svg>
